<svg xmlns="http://www.w3.org/2000/svg" version="1.1" xmlns:xlink="http://www.w3.org/1999/xlink" xmlns:svgjs="http://svgjs.dev/svgjs" width="1000" height="1125" viewBox="0 0 1000 1125"><g transform="matrix(1,0,0,1,1.7053025658242404e-13,0)"><svg viewBox="0 0 320 360" data-background-color="#ffffff" preserveAspectRatio="xMidYMid meet" height="1125" width="1000" xmlns="http://www.w3.org/2000/svg" xmlns:xlink="http://www.w3.org/1999/xlink"><g id="tight-bounds" transform="matrix(1,0,0,1,0,0)"><svg viewBox="0 0 320 360" height="360" width="320"><g><svg></svg></g><g><svg viewBox="0 0 320 360" height="360" width="320"><g><path xmlns="http://www.w3.org/2000/svg" d="M20.961 227.22l3.726 4.658-1.863-6.056c-0.466-2.795-3.726 0.466-1.863 1.398M25.153 224.425c1.397 2.329 2.795 4.658 2.795 6.987 0 3.261 2.795 4.658 5.123 5.589-3.261-3.726-5.124-13.974-7.918-12.576M204.017 26.929c7.918 0 15.371-0.932 23.756 0.931 20.495 5.124 37.729 15.371 49.374 29.811l32.606 52.169c1.397 13.042 4.192 27.482 3.726 43.319 3.261 0 2.795-4.658 6.521-5.59-3.726 9.316-5.59 20.961-6.521 34.469-2.329-7.453 0-18.632 0.466-24.687-3.261 5.124-5.124 1.397-5.124-0.932 0.466-3.726-1.397-3.261-2.795-4.658-5.124-4.658-8.384-9.782-12.11-17.7 2.329-6.055 2.795-14.905-4.658-19.563-2.329-1.397-5.124-3.726-6.521-7.453-1.863-5.124-5.124-11.179-4.193-19.097 0.466-2.329-6.987 5.124-11.179 1.863-18.166-12.576-36.332-27.016-58.224-39.127-11.645 0-20.029-4.192-24.221-9.316-3.726-4.658-0.932-10.713 4.658-11.179 3.261 0 6.987-0.932 9.782 0.932 0.466-1.863 2.329-4.192 4.657-4.192M157.904 16.215l0.932 0.466c4.658 0.932 6.987 7.453 12.11 5.124 0 3.261 0.466 6.521-0.466 8.85-1.397 3.726-5.59 3.726-8.85 3.726-31.208-1.863-49.374 11.179-68.471 22.358-5.124 3.261-10.713 5.59-14.906 9.782-20.029 18.632-41.921 35.866-47.045 70.335l-4.192 38.195c-0.466 4.192-5.124 8.384-4.192 13.508l3.26 22.824c-3.261-3.261-5.124 0.932-4.192 2.795 0.466 1.397 2.329 6.055 5.124 1.863 3.726 6.987 7.453 20.495 12.576 26.55 15.837 18.632 36.332 35.4 53.101 52.169 4.192-0.932 7.453-0.932 8.384-3.727 1.397 2.795-1.397 5.59-3.726 6.056 7.453 4.658 15.837 8.85 27.016 9.781 14.44 0.932 27.948 3.261 40.524 6.522 6.521-1.863 13.042-2.795 20.029-3.261 2.329 0 3.726-3.726 6.521-4.658l0.466-4.658c2.795 4.192 2.329-1.397 0.466-4.192 3.261 2.795 4.192 5.124 5.589 6.987 0-1.397 3.726-6.521 3.727-0.466l0.931-6.055c1.397-0.932 1.863 5.124 3.261 0.931 1.397-4.192 4.192-0.932 6.987-2.329-0.932 1.863-0.466 5.59 2.794 3.261l3.727-3.261c2.329 5.59 6.055 3.261 7.918 2.329 20.495-13.042 40.99-28.413 60.553-43.784l-0.466 6.055 2.329-7.453c2.329 2.329 4.192 0.466 5.124-0.931 2.795-4.658 6.521-9.316 12.577-13.508-7.453 20.029-16.303 35.866-27.482 48.908l-4.658 5.59c0 3.261-0.932 7.453-4.658 7.918-1.863 0.466-5.59-0.932-8.384 1.863-1.397 1.863 3.261 5.59-0.466 2.795-3.261-2.329-6.521 0-10.248 0.932-2.795 0.932 1.863 3.726 2.795 5.589 0.932 1.863 1.863 3.726 1.398 6.056l-5.124-5.59c-6.055 3.261-9.782 9.316-14.906 13.974-2.329 1.863-1.397 5.124-1.397 7.918-3.261 0-6.987-0.932-8.85 0.932-1.397 1.863-0.932 4.658-0.932 7.453-4.658-0.466-5.124-7.453-9.315-6.056-4.192 0.932-8.85 1.397-12.577 3.727 2.795 5.59-4.658 2.329-3.726 3.26-6.987-4.192-13.042-7.453-20.495-4.658-15.837-5.124-35.4-2.795-49.84-0.931 0-2.329 0.466-4.658-0.466-5.124-0.932 2.329-3.726 1.397-3.26 1.397-8.85-6.055-17.7-9.782-27.016-14.905-8.384 0.932-16.303-3.261-18.632-5.59-6.521-6.055-13.974-2.795-20.029-4.192-13.042-3.261-17.7-16.769-19.098-26.084-0.932-4.658-4.658-6.521-6.055-6.056-6.055-19.563-15.371-37.263-22.824-55.429-1.863-4.658-1.397-9.316-1.397-14.44 2.329 0.932 4.658 0.466 4.192-2.794-2.329-15.371-7.918-27.016-13.974-38.195 3.261-15.837 3.726-34.469 11.179-48.443 6.521-12.576 18.632-19.098 27.016-29.811 2.795-3.726 2.795-8.85 5.59-12.11 9.316-9.316 18.632-19.098 28.879-27.482 4.658-3.726 10.247 0 17.234-1.397 2.329-8.384 11.645-15.837 20.495-13.508 3.726 0.932 11.179-8.85 13.508-9.782 3.726-1.397 1.863 3.726 1.863 6.987 8.85-6.987 20.961-10.713 32.14-14.906" fill="#000000" fill-rule="nonzero" stroke="none" stroke-width="1" stroke-linecap="butt" stroke-linejoin="miter" stroke-miterlimit="10" stroke-dasharray="" stroke-dashoffset="0" font-family="none" font-weight="none" font-size="none" text-anchor="none" style="mix-blend-mode: normal" data-fill-palette-color="tertiary"></path></g><g transform="matrix(1,0,0,1,73.3640441095203,90)"><svg viewBox="0 0 173.2719117809594 180" height="180" width="173.2719117809594"><g><svg viewBox="0 0 173.2719117809594 180" height="180" width="173.2719117809594"><g><svg viewBox="0 0 192 199.4552933870136" height="180" width="173.2719117809594"><g transform="matrix(1,0,0,1,0,77.30004224546109)"><svg viewBox="0 0 192 122.15525114155251" height="122.15525114155251" width="192"><g id="textblocktransform"><svg viewBox="0 0 192 122.15525114155251" height="122.15525114155251" width="192" id="textblock"><g><svg viewBox="0 0 192 122.15525114155251" height="122.15525114155251" width="192"><g transform="matrix(1,0,0,1,0,0)"><svg width="192" viewBox="-0.4000000059604645 -36.29999923706055 65.69000244140625 41.79999923706055" height="122.15525114155251" data-palette-color="#0080ff"><path d="M27.9-8.8L27.9-8.8Q28.25-8.8 28.25-8.45 28.25-8.1 27.7-7.85L27.7-7.85Q24.3-6.15 19.7-6L19.7-6Q17.3-1.4 17.25-1.28 17.2-1.15 17.03-0.78 16.85-0.4 16.7-0.2L16.7-0.2Q16.4 0.3 16.05 0.3L16.05 0.3Q15.15 0.3 15.15-0.95L15.15-0.95Q15.15-3.6 14.5-6.35L14.5-6.35Q11.75-6.75 9.45-7.6L9.45-7.6 2.7 4.45 1.65 5.2Q1.05 5.5 0.7 5.5L0.7 5.5Q0.25 5.5 0.25 5L0.25 5Q0.25 4.7 0.45 4.3L0.45 4.3 7.65-8.35Q4-10 1.8-12.58-0.4-15.15-0.4-18.3L-0.4-18.3Q-0.4-22.45 2.6-22.45L2.6-22.45Q4.55-22.45 7.08-20.55 9.6-18.65 11.75-15.5L11.75-15.5 21.5-32.7Q22.05-33.5 23.45-33.5L23.45-33.5Q23.8-33.5 23.8-33.27 23.8-33.05 12.85-13.6L12.85-13.6Q14.6-10.45 15.4-7.05L15.4-7.05Q16.85-6.85 18.8-6.85L18.8-6.85Q24.45-17.85 34.15-35.2L34.15-35.2Q34.7-36.2 36.2-36.3L36.2-36.3Q36.6-36.3 36.6-36.02 36.6-35.75 36.25-35.15 35.9-34.55 33.2-29.8L33.2-29.8Q23.4-12.75 20.2-6.85L20.2-6.85Q24.4-7.1 27.9-8.8ZM8.15-9.2L8.15-9.2 11-14.2Q9.1-17.05 6.85-18.8 4.6-20.55 3.05-20.55L3.05-20.55Q1.35-20.55 1.35-18.5L1.35-18.5Q1.35-15.55 3.18-13.15 5-10.75 8.15-9.2ZM9.95-8.45L9.95-8.45Q11.95-7.65 14.25-7.25L14.25-7.25Q13.4-10 12.15-12.35L12.15-12.35Q10-8.55 9.95-8.45ZM15.55-6.2L15.55-6.2Q16-4 16-1.8L16-1.8 16.05-1.25Q16.4-2.05 18.35-6L18.35-6Q17.45-6 15.55-6.2ZM28.2-4.85L28.2-4.85Q25.2-4.85 25.2-6.15L25.2-6.15Q25.2-7.7 28.75-9.83 32.3-11.95 35.15-11.95L35.15-11.95Q36.6-11.95 36.6-11.05L36.6-11.05Q36.6-10.55 35.85-9.95 35.1-9.35 34.4-9 33.7-8.65 33.6-8.65L33.6-8.65Q33.3-8.65 33.2-8.9L33.2-8.9Q33.1-9.25 33.72-9.63 34.35-10 34.35-10.45 34.35-10.9 33.22-10.9 32.1-10.9 29.7-9.33 27.3-7.75 27.3-6.75L27.3-6.75Q27.3-6 29.05-6L29.05-6Q29.35-6 30.15-6.05 30.95-6.1 30.95-5.85 30.95-5.6 28.47-4.05 26-2.5 26-1.4L26-1.4Q26-0.15 27.62-0.15 29.25-0.15 31.3-1L31.3-1Q34.6-2.45 37.3-4.1L37.3-4.1 38.25-4.7Q38.3-4.6 38.3-4.3 38.3-4 37.85-3.8L37.85-3.8Q35.2-2 32.05-0.38 28.9 1.25 26.37 1.25 23.85 1.25 23.85-0.43 23.85-2.1 28.2-4.85ZM45.75-15.25L45.75-15.25Q46.5-15.25 46.5-14.5 46.5-13.75 45.8-12.98 45.09-12.2 44.25-12.2L44.25-12.2Q43.55-12.2 43.55-13.18 43.55-14.15 44.34-14.7 45.15-15.25 45.75-15.25ZM41.05-8.65L41.05-8.65Q41.3-9.05 41.75-9.05 42.2-9.05 42.65-8.6L42.65-8.6Q42.65-8.4 42-7.7 41.34-7 39.8-4.58 38.25-2.15 38.25-1.35L38.25-1.35Q38.25-0.85 39-0.75L39-0.75Q40-0.75 42.09-1.73 44.2-2.7 45.8-3.7L45.8-3.7 47.4-4.7Q47.45-4.6 47.45-4.3 47.45-4 47-3.8L47-3.8Q40.25 0.8 37.59 0.8L37.59 0.8Q36.3 0.8 36.3-0.5 36.3-1.8 37.72-4.13 39.15-6.45 41.05-8.65ZM45.94-3.8L45.94-3.8Q46.89-4.35 48.44-5.55L48.44-5.55Q52.24-8.55 52.49-8.55L52.49-8.55Q53.24-8.55 53.24-7.9 53.24-7.25 52.47-5.9 51.69-4.55 50.72-3.1 49.74-1.65 49.59-1.35L49.59-1.35Q49.64-1.3 49.82-1.3 49.99-1.3 51.79-2.63 53.59-3.95 55.54-5.43 57.49-6.9 57.84-7.13 58.19-7.35 58.49-7.35L58.49-7.35Q59.09-7.3 59.09-6.65L59.09-6.65Q59.09-6.4 57.39-4.13 55.69-1.85 55.69-1.2L55.69-1.2Q55.69-0.75 56.77-0.75 57.84-0.75 59.94-1.73 62.04-2.7 63.64-3.7L63.64-3.7 65.24-4.7Q65.29-4.6 65.29-4.3 65.29-4 64.84-3.8L64.84-3.8Q58.09 0.8 55.44 0.8L55.44 0.8Q53.89 0.8 53.89-0.4L53.89-0.4Q53.89-1.55 54.57-2.6 55.24-3.65 55.74-4.38 56.24-5.1 56.24-5.15L56.24-5.15Q53.94-3.5 50.79-1.2 47.64 1.1 47.24 1.1L47.24 1.1Q46.94 1.1 46.94 0.4 46.94-0.3 48.92-3.25 50.89-6.2 50.89-6.4 50.89-6.6 50.79-6.6L50.79-6.6 50.29-6.35 47.79-4.35Q47.54-4.15 46.84-3.7 46.14-3.25 45.97-3.25 45.79-3.25 45.79-3.48 45.79-3.7 45.94-3.8Z" opacity="1" transform="matrix(1,0,0,1,0,0)" fill="#000000" class="undefined-text-0" data-fill-palette-color="primary" id="text-0"></path></svg></g></svg></g></svg></g></svg></g><g transform="matrix(1,0,0,1,36.672,0)"><svg viewBox="0 0 118.656 59.47465937788118" height="59.47465937788118" width="118.656"><g><svg xmlns="http://www.w3.org/2000/svg" xmlns:xlink="http://www.w3.org/1999/xlink" xml:space="preserve" style="shape-rendering:geometricPrecision;text-rendering:geometricPrecision;image-rendering:optimizeQuality;" viewBox="0.0000020265579223632812 0.0000027120113372802734 14.727499008178711 7.38195276260376" x="0" y="0" fill-rule="evenodd" clip-rule="evenodd" width="118.656" height="59.47465937788118" class="icon-icon-0" data-fill-palette-color="accent" id="icon-0"><g fill="#010c80" data-fill-palette-color="accent"><path class="" d="M1.757 3.091c-0.313 0.444-0.296 1.331-0.417 1.95-0.153 0.784-0.711 1.203-1.34 1.534 0.188-0.771 0.348-1.542 0.412-2.313 0.078-0.953-0.06-0.891 0.767-1.575 1.159-0.961 3.04-1.741 5.848-2.29 2.456-0.406 5.049-0.453 7.701-0.351-0.89 1.809-3.733 1.961-7.203 1.581-1.811 0.02-3.495-0.488-5.768 1.464z m8.33 2.781c-3.895 2.038-7.803-2.284-9.165 0.688 2.104-1.831 5.079 3.183 9.165-0.688z m2.489-2.547c-4.49 2.72-9.502-0.792-10.907 1.859 3.412-1.235 7.765 2.753 10.907-1.859z m0.834-1.478c-3.944 1.761-10.043-1.402-11.565 2.239 3.106-1.808 8.446 1.438 11.565-2.239z" fill="#000000" data-fill-palette-color="accent"></path></g></svg></g></svg></g><g></g></svg></g></svg></g></svg></g></svg></g><defs></defs></svg><rect width="320" height="360" fill="none" stroke="none" visibility="hidden"></rect></g></svg></g></svg>